{"title":"Star.Wars.Episode.VII.The.Force.Awakens.2015.BRRip.480p.x264.AAC","uid":13993543,"size":532853737,"categoryP":"video","categoryS":"movies","magnet":"?xt=urn:btih:ae486c599a694abb2a5f14cf11750d0e27660df8&amp;dn=Star.Wars.Episode.VII.The.Force.Awakens.2015.BRRip.480p.x264.AAC&amp;tr=udp%3A%2F%2Ftracker.leechers-paradise.org%3A6969&amp;tr=udp%3A%2F%2Fzer0day.ch%3A1337&amp;tr=udp%3A%2F%2Fopen.demonii.com%3A1337&amp;tr=udp%3A%2F%2Ftracker.coppersurfer.tk%3A6969&amp;tr=udp%3A%2F%2Fexodus.desync.com%3A6969","seeders":1,"leechers":4,"uploader":"VYTOP2PDL","files":7,"time":1458723479,"description":"Star.Wars.Episode.VII.The.Force.Awakens.2015.BRRip.480p.x264.AAC-VYTO\r\n\r\n\r\nGenre: Action, Adventure, Fantasy \nhttp://www.imdb.com/title/tt2488496/\r\n\r\n\r\nFormat                                   : MPEG-4\r\nFile size                                : 503 MiB\r\nDuration                                 : 2h 18mn\r\nOverall bit rate                         : 509 Kbps\r\n\r\nVideo\r\nFormat                                   : AVC\r\nBit rate                                 : 474 Kbps\r\nWidth                                    : 720 pixels\r\nHeight                                   : 304 pixels\r\nDisplay aspect ratio                     : 2.35:1\r\nFrame rate mode                          : Constant\r\nFrame rate                               : 23.976 fps\r\nBit depth                                : 8 bits\r\nStream size                              : 468 MiB (93%)\r\nWriting library                          : x264\r\n\r\nAudio\r\nFormat                                   : AAC\r\nBit rate                                 : 31.9 Kbps\r\nChannel(s)                               : 2 channels\r\nChannel positions                        : Front: L R \r\nSampling rate                            : 48.0 KHz\r\nStream size                              : 31.6 MiB (6%)\r\nLanguage                                 : English\r\n\r\nSubtitle                                 : Yes (English)\r\n\r\nScreen Shot: (Click to view)\r\n \nhttp://ititli.com/XGV \nhttp://ititli.com/XGt \nhttp://ititli.com/XGL \nhttp://ititli.com/XGd \nhttp://ititli.com/XG0 \nhttp://ititli.com/XGA \nhttp://ititli.com/XGl \nhttp://ititli.com/XGm \nhttp://ititli.com/XGx \nhttp://ititli.com/XG7 \nhttp://ititli.com/XGC \nhttp://ititli.com/XGF\r\n\r\n----------------------------------------------------------------------------------------------------\r\n\r\n\r\nEncoder Notes: Looking For Early Access To Anything You Can Provide WEBDL, DVDScr, DVDR, BluRay,\r\nDirect Audio, Music Releases and Seedboxes. If You Got anything to offer please contact us.\r\n\r\nSupport us by donating BC - 1FgwdzPsd1y25Gea8wP1qni35uGCtmkRCD\r\n\r\nind us and join us!","torrent":{"xt":"urn:btih:ae486c599a694abb2a5f14cf11750d0e27660df8","amp;dn":"Star.Wars.Episode.VII.The.Force.Awakens.2015.BRRip.480p.x264.AAC","amp;tr":["udp%3A%2F%2Ftracker.leechers-paradise.org%3A6969","udp%3A%2F%2Fzer0day.ch%3A1337","udp%3A%2F%2Fopen.demonii.com%3A1337","udp%3A%2F%2Ftracker.coppersurfer.tk%3A6969","udp%3A%2F%2Fexodus.desync.com%3A6969"],"infoHash":"ae486c599a694abb2a5f14cf11750d0e27660df8","infoHashBuffer":{"type":"Buffer","data":[174,72,108,89,154,105,74,187,42,95,20,207,17,117,13,14,39,102,13,248]},"announce":[],"urlList":[]}}